<?xml version="1.0" encoding="utf-8"?>
<!-- Generator: Adobe Illustrator 17.0.0, SVG Export Plug-In . SVG Version: 6.00 Build 0)  -->
<!DOCTYPE svg PUBLIC "-//W3C//DTD SVG 1.1//EN" "http://www.w3.org/Graphics/SVG/1.1/DTD/svg11.dtd" [
	<!ENTITY ns_flows "http://ns.adobe.com/Flows/1.0/">
	<!ENTITY ns_extend "http://ns.adobe.com/Extensibility/1.0/">
	<!ENTITY ns_ai "http://ns.adobe.com/AdobeIllustrator/10.0/">
	<!ENTITY ns_graphs "http://ns.adobe.com/Graphs/1.0/">
]>
<svg version="1.1" id="Layer_1" xmlns:x="&ns_extend;" xmlns:i="&ns_ai;" xmlns:graph="&ns_graphs;"
	 xmlns="http://www.w3.org/2000/svg" xmlns:xlink="http://www.w3.org/1999/xlink" xmlns:a="http://ns.adobe.com/AdobeSVGViewerExtensions/3.0/"
	 x="0px" y="0px" width="1400px" height="980px" viewBox="0 0 1400 980" enable-background="new 0 0 1400 980" xml:space="preserve"
	>
<pattern  width="625.501" height="956.907" patternUnits="userSpaceOnUse" id="New_Pattern_2" viewBox="27.425 -956.906 625.501 956.907" overflow="visible">
	<g>
		<polygon fill="none" points="27.425,-956.906 652.926,-956.906 652.926,0 27.425,0 		"/>
		<g>
			<path fill="#E2E2DB" d="M458.505-153.294c-5.707,0.175-22.482,0.394-35.68,0.799s-19.736-3.229-19.809-5.586
				c-0.154-5.009,10.981-2.667,11.591-6.253c0.303-1.779-18.228-0.621-18.445-7.692c-0.172-5.598,23.8-3.973,23.683-7.804
				c-0.072-2.357-11.807-0.818-11.925-4.648c-0.145-4.714,18.43-4.399,24.852-4.596c5.922-0.181,23.899-0.732,24.008,2.803
				c0.135,4.42-7.829,0.83-7.694,5.249c0.154,5.009,21.64-0.062,22.36,7.277c0.519,5.293-14.535,5.432-9.378,8.545
				c3.015,1.82,10.681,0.311,12.388,5.673C475.935-154.88,466.651-153.544,458.505-153.294z"/>
			<path fill="none" stroke="#001BAF" stroke-linecap="round" stroke-linejoin="round" stroke-miterlimit="10" d="M615.672-127.227
				c7,0,11.198-0.516,18,0"/>
			<path fill="none" stroke="#001BAF" stroke-width="2" stroke-linecap="round" stroke-linejoin="round" stroke-miterlimit="10" d="
				M479.672-6.227c7,0,11.198-0.516,18,0"/>
			<path fill="none" stroke="#001BAF" stroke-linecap="round" stroke-linejoin="round" stroke-miterlimit="10" d="M567.675-127.083
				c6.999-0.112,11.189-0.695,17.998-0.288"/>
			<path fill="#DFDFBD" d="M451.176-47.226c-4.634,0.148-17.418-8.153-19.402-11.635c-7.679-13.481-8.869-26.438-2.308-24.528
				c3.96,1.153,15.901,20.5,17.743,24.266C449.402-54.64,449.797-48.895,451.176-47.226"/>
			<path fill="none" stroke="#FFFFFF" stroke-linecap="round" stroke-linejoin="round" stroke-miterlimit="10" d="M428.119-83.389
				c0,0,10.63,30.466,22.009,35.467"/>
			
				<line fill="none" stroke="#001BAF" stroke-linecap="round" stroke-linejoin="round" stroke-miterlimit="10" x1="333.176" y1="-96.628" x2="386.277" y2="-96.628"/>
			<path fill="#9BDEAF" d="M626.406-27.718c5.082,0,30.49,0,34.556,0c4.065,0-13.721-49.292-17.786-49.292
				S621.324-27.718,626.406-27.718z"/>
			<line fill="none" stroke="#001BAF" stroke-miterlimit="10" x1="643.176" y1="-28.226" x2="643.176" y2="-9.424"/>
			<line fill="none" stroke="#001BAF" stroke-miterlimit="10" x1="596.176" y1="-211.112" x2="596.176" y2="-195.54"/>
			<path fill="#CADED0" d="M611.304-224.098c0,8.355-6.773,15.129-15.129,15.129s-15.129-6.773-15.129-15.129
				c0-8.355,6.773-15.129,15.129-15.129S611.304-232.453,611.304-224.098z"/>
		</g>
		<g>
			<path fill="#9BDEAF" d="M215.675-179.227c-1.851,3.406-11.287,10.897-14.424,10.991c-12.143,0.362-17.753-6.797-17.187-7.771
				c1.735-2.981,15.345-4.838,18.61-4.72C206.561-180.586,213.992-178.873,215.675-179.227"/>
			<path fill="none" stroke="#001BAF" stroke-linecap="round" stroke-linejoin="round" stroke-miterlimit="10" d="M183.498-175.033
				c0,0,24.613,4.042,32.706-2.257"/>
			<path fill="#F1EEE0" d="M267.709-63.671c4.361,0.818,14.976-3.213,14.853,2.406c-0.274,12.468-19.112,5.121-18.852,13.599
				c0.229,7.48,10.427,0.679,10.657,8.159c0.183,5.984-23.635,6.714-31.48,6.955c-8.508,0.261-33.035,2.51-33.28-5.469
				c-0.199-6.483,15.458-4.966,15.335-8.955c-0.199-6.483-27.206,0.554-27.497-8.921c-0.183-5.984,16.635-5.331,22.869-7.103
				L267.709-63.671z"/>
			<polygon fill="#DFDFBD" points="104.259,-182.124 121.759,-182.124 121.759,-164.624 			"/>
			<path fill="#C1E0E0" d="M215.675-179.227c1.433,3.602-0.874,15.82-2.809,18.29c-7.491,9.563-16.583,9.294-16.969,8.235
				c-1.181-3.241,10.183-17.861,12.363-20.294C210.855-175.892,214.87-177.707,215.675-179.227"/>
			<path fill="none" stroke="#001BAF" stroke-linecap="round" stroke-linejoin="round" stroke-miterlimit="10" d="M196.283-151.642
				c0,0,18.855-16.329,19.192-26.578"/>
			
				<line fill="none" stroke="#001BAF" stroke-width="2" stroke-linecap="round" stroke-linejoin="round" stroke-miterlimit="10" x1="84.385" y1="-96.628" x2="129.675" y2="-96.628"/>
			<path fill="#9BDEAF" d="M0.905-27.718c5.082,0,30.49,0,34.555,0S21.74-77.011,17.675-77.011S-4.176-27.718,0.905-27.718z"/>
			<path fill="#FF436B" d="M90.862-148.226c0,1.709-1.385,3.094-3.094,3.094s-3.094-1.385-3.094-3.094
				c0-1.709,1.385-3.094,3.094-3.094S90.862-149.935,90.862-148.226z"/>
		</g>
		<g>
			
				<line fill="none" stroke="#001BAF" stroke-linecap="round" stroke-linejoin="round" stroke-miterlimit="10" x1="645.926" y1="-575.081" x2="699.028" y2="-575.081"/>
		</g>
		<g>
			<path fill="#9BDEAF" d="M528.426-657.68c-1.851,3.406-11.287,10.897-14.424,10.991c-12.143,0.362-17.753-6.797-17.187-7.771
				c1.735-2.981,15.345-4.838,18.61-4.72C519.312-659.039,526.743-657.326,528.426-657.68"/>
			<path fill="none" stroke="#001BAF" stroke-linecap="round" stroke-linejoin="round" stroke-miterlimit="10" d="M496.249-653.486
				c0,0,24.613,4.042,32.706-2.257"/>
			<path fill="#E2E2DB" d="M145.755-631.748c-5.707,0.175-22.482,0.394-35.68,0.799c-13.198,0.405-19.736-3.229-19.809-5.586
				c-0.154-5.009,10.981-2.667,11.591-6.253c0.303-1.779-18.228-0.621-18.445-7.692c-0.172-5.598,23.8-3.974,23.683-7.804
				c-0.072-2.357-11.807-0.818-11.925-4.648c-0.144-4.714,18.43-4.399,24.852-4.596c5.922-0.181,23.899-0.732,24.008,2.803
				c0.135,4.419-7.83,0.83-7.694,5.249c0.154,5.009,21.64-0.062,22.36,7.277c0.519,5.292-14.535,5.432-9.378,8.545
				c3.015,1.82,10.681,0.311,12.388,5.673C163.184-633.334,153.9-631.997,145.755-631.748z"/>
			<path fill="#F1E2DB" d="M250.465-287.367c-11.695,0.358-17.489-2.897-17.554-5.008c-0.137-4.485,9.729-2.385,10.269-5.596
				c0.268-1.593-16.152-0.561-16.346-6.893c-0.154-5.013,21.088-3.551,20.983-6.981c-0.065-2.111-10.463-0.736-10.568-4.166
				c-0.129-4.221,16.33-3.934,22.02-4.108c5.247-0.161,21.177-0.649,21.274,2.517c0.121,3.958-6.938,0.741-6.816,4.698
				c0.137,4.485,19.175-0.049,19.815,6.523c0.462,4.739-12.878,4.86-8.308,7.649c2.672,1.63,9.465,0.281,10.979,5.084
				c1.312,4.161-6.914,5.355-14.132,5.576"/>
			<path fill="#F1EEE0" d="M580.459-542.124c4.362,0.818,14.976-3.213,14.853,2.406c-0.274,12.468-19.112,5.121-18.852,13.599
				c0.229,7.48,10.427,0.679,10.657,8.159c0.183,5.984-23.635,6.714-31.48,6.955c-8.508,0.261-33.035,2.51-33.28-5.469
				c-0.199-6.483,15.458-4.966,15.336-8.956c-0.199-6.483-27.206,0.554-27.497-8.921c-0.183-5.984,16.635-5.331,22.869-7.103
				L580.459-542.124z"/>
			<path fill="#FFB54C" d="M542.057-348.655c-0.601,0.601-1.574,0.601-2.175,0l-5.709-5.709c-0.601-0.601-0.601-1.574,0-2.175
				l5.709-5.709c0.601-0.601,1.574-0.601,2.175,0l5.709,5.709c0.601,0.601,0.601,1.574,0,2.175L542.057-348.655z"/>
			<path fill="#FFB54C" d="M95.371-411.769c-0.522,0.522-1.369,0.522-1.891,0l-4.965-4.965c-0.522-0.522-0.522-1.369,0-1.891
				l4.965-4.965c0.522-0.522,1.369-0.522,1.891,0l4.965,4.965c0.522,0.522,0.522,1.369,0,1.891L95.371-411.769z"/>
			<polygon fill="#DFDFBD" points="417.01,-660.577 434.51,-660.577 434.51,-643.077 			"/>
			<polygon fill="none" stroke="#001BAF" stroke-linecap="round" stroke-linejoin="round" stroke-miterlimit="10" points="
				375.745,-442.372 388.119,-454.746 400.494,-442.372 			"/>
			<path fill="none" stroke="#001BAF" stroke-linecap="round" stroke-linejoin="round" stroke-miterlimit="10" d="M302.922-605.68
				c7,0,11.198-0.516,18,0"/>
			<path fill="none" stroke="#001BAF" stroke-width="2" stroke-linecap="round" stroke-linejoin="round" stroke-miterlimit="10" d="
				M166.922-484.68c7,0,11.198-0.516,18,0"/>
			<path fill="none" stroke="#001BAF" stroke-linecap="round" stroke-linejoin="round" stroke-miterlimit="10" d="M359.425-290.68
				c7,0,11.198-0.516,18,0"/>
			<path fill="none" stroke="#001BAF" stroke-linecap="round" stroke-linejoin="round" stroke-miterlimit="10" d="M173.922-326.68
				c7,0,11.198-0.516,18,0"/>
			<path fill="none" stroke="#001BAF" stroke-linecap="round" stroke-linejoin="round" stroke-miterlimit="10" d="M254.925-605.536
				c6.999-0.112,11.189-0.695,17.998-0.288"/>
			<path fill="#DAE6D2" d="M166.075-331.877c-3.837,0.206-14.423-11.32-16.066-16.154c-6.359-18.717-7.344-36.708-1.911-34.056
				c3.279,1.601,13.167,28.464,14.692,33.692C164.606-342.17,164.933-334.194,166.075-331.877"/>
			<path fill="#C1E0E0" d="M166.075-327.786c-2.356-3.347-4.959-15.373-3.967-31.738c1.33-21.945,9.918-29.754,13.389-31.738
				c3.856-2.203,2.441,36.192,1.488,42.152C175.001-336.712,170.786-329.645,166.075-327.786"/>
			<path fill="#9BDEAF" d="M172.243-327.515c-0.979,0.226,9.244,0.717,16.258-22.338c4.887-16.064,0.474-23.587-1.625-25.784
				c-2.331-2.441-11.573,25.462-12.451,29.957C172.599-336.33,172.842-329.651,172.243-327.515"/>
			<path fill="none" stroke="#001BAF" stroke-linecap="round" stroke-linejoin="round" stroke-miterlimit="10" d="M175.497-391.262
				c0,0-11.474,47.667-9.422,63.476"/>
			<path fill="none" stroke="#001BAF" stroke-linecap="round" stroke-linejoin="round" stroke-miterlimit="10" d="M186.876-375.637
				c0,0-7.242,37.636-14.633,48.122"/>
			<path fill="none" stroke="#001BAF" stroke-linecap="round" stroke-linejoin="round" stroke-miterlimit="10" d="M146.982-382.088
				c0,0,6.943,39.177,16.365,46.119"/>
			<path fill="#DFDFBD" d="M138.425-525.68c-4.634,0.148-17.418-8.153-19.402-11.635c-7.679-13.481-8.869-26.438-2.308-24.528
				c3.96,1.153,15.901,20.5,17.743,24.266C136.651-533.093,137.047-527.348,138.425-525.68"/>
			<path fill="none" stroke="#FFFFFF" stroke-linecap="round" stroke-linejoin="round" stroke-miterlimit="10" d="M115.368-561.843
				c0,0,10.63,30.466,22.009,35.467"/>
			<path fill="#E3A4AF" d="M449.069-445.278c1.725,4.303-1.698,19.157-4.291,22.212c-10.038,11.83-21.796,11.83-22.257,10.564
				c-1.412-3.876,13.819-21.958,16.728-24.977C442.71-441.074,447.973-443.412,449.069-445.278"/>
			<path fill="none" stroke="#FFFFFF" stroke-linecap="round" stroke-linejoin="round" stroke-miterlimit="10" d="M422.982-411.236
				c0,0,24.988-20.416,25.791-32.819"/>
			<path fill="#C1E0E0" d="M528.426-657.68c1.433,3.602-0.874,15.82-2.809,18.29c-7.491,9.563-16.583,9.294-16.969,8.235
				c-1.181-3.241,10.183-17.861,12.363-20.294C523.605-654.345,527.621-656.16,528.426-657.68"/>
			<path fill="none" stroke="#001BAF" stroke-linecap="round" stroke-linejoin="round" stroke-miterlimit="10" d="M509.033-630.096
				c0,0,18.855-16.329,19.192-26.578"/>
			
				<line fill="none" stroke="#001BAF" stroke-linecap="round" stroke-linejoin="round" stroke-miterlimit="10" x1="20.425" y1="-575.081" x2="73.527" y2="-575.081"/>
			
				<line fill="none" stroke="#001BAF" stroke-width="2" stroke-linecap="round" stroke-linejoin="round" stroke-miterlimit="10" x1="397.136" y1="-575.081" x2="442.425" y2="-575.081"/>
			<path fill="#9BDEAF" d="M313.656-506.172c5.082,0,30.49,0,34.555,0c4.065,0-13.721-49.292-17.786-49.292
				S308.574-506.172,313.656-506.172z"/>
			<line fill="none" stroke="#001BAF" stroke-miterlimit="10" x1="330.425" y1="-506.68" x2="330.425" y2="-487.878"/>
			<path fill="#CEDEDC" d="M461.904-273.68c3.886,0-13.114-32.133-17-32.133s-20.885,32.133-16.028,32.133c0.759,0,1.993,0,3.549,0
				c-3.488,8.883-5.738,16.968-3.549,16.968c4.857,0,29.142,0,33.028,0c1.751,0-0.739-8.085-4.359-16.968
				C459.582-273.68,461.141-273.68,461.904-273.68z"/>
			<line fill="none" stroke="#001BAF" stroke-miterlimit="10" x1="444.905" y1="-257.198" x2="444.905" y2="-239.226"/>
			<line fill="none" stroke="#001BAF" stroke-miterlimit="10" x1="625.426" y1="-405.179" x2="625.426" y2="-384.592"/>
			<path fill="#D9EBCC" d="M645.426-426.179c0,11.046-8.954,20-20,20c-11.046,0-20-8.954-20-20s8.954-20,20-20
				C636.472-446.179,645.426-437.224,645.426-426.179z"/>
			<line fill="none" stroke="#001BAF" stroke-miterlimit="10" x1="283.425" y1="-689.566" x2="283.425" y2="-673.993"/>
			<path fill="#CADED0" d="M298.554-702.551c0,8.355-6.773,15.129-15.129,15.129s-15.129-6.773-15.129-15.129
				s6.773-15.129,15.129-15.129S298.554-710.906,298.554-702.551z"/>
			<path fill="#001BAF" d="M300.277-421.18c0,1.851-1.501,3.352-3.352,3.352s-3.352-1.501-3.352-3.352s1.501-3.352,3.352-3.352
				S300.277-423.031,300.277-421.18z"/>
			<path fill="#FF436B" d="M403.613-626.68c0,1.709-1.385,3.094-3.094,3.094s-3.094-1.385-3.094-3.094s1.385-3.094,3.094-3.094
				S403.613-628.388,403.613-626.68z"/>
		</g>
		<g>
			<path fill="#F1E2DB" d="M563.215-765.821c-11.695,0.358-17.49-2.897-17.554-5.008c-0.137-4.485,9.729-2.385,10.269-5.596
				c0.268-1.593-16.152-0.561-16.346-6.893c-0.154-5.013,21.088-3.551,20.983-6.981c-0.065-2.111-10.463-0.736-10.568-4.166
				c-0.129-4.221,16.33-3.934,22.02-4.108c5.247-0.161,21.177-0.649,21.274,2.517c0.121,3.958-6.938,0.741-6.816,4.698
				c0.137,4.485,19.175-0.049,19.815,6.523c0.462,4.739-12.878,4.86-8.308,7.649c2.672,1.63,9.465,0.281,10.979,5.084
				c1.312,4.161-6.914,5.355-14.132,5.576"/>
			<path fill="#FFB54C" d="M408.121-890.222c-0.522,0.522-1.369,0.522-1.891,0l-4.965-4.965c-0.522-0.522-0.522-1.369,0-1.891
				l4.965-4.965c0.522-0.522,1.369-0.522,1.891,0l4.965,4.965c0.522,0.522,0.522,1.369,0,1.891L408.121-890.222z"/>
			<path fill="none" stroke="#001BAF" stroke-linecap="round" stroke-linejoin="round" stroke-miterlimit="10" d="M486.672-805.133
				c7,0,11.198-0.516,18,0"/>
			<path fill="#DAE6D2" d="M478.825-810.33c-3.837,0.206-14.423-11.32-16.066-16.154c-6.359-18.717-7.344-36.708-1.911-34.056
				c3.279,1.601,13.167,28.464,14.692,33.692C477.356-820.624,477.684-812.647,478.825-810.33"/>
			<path fill="#C1E0E0" d="M478.825-806.239c-2.356-3.347-4.959-15.373-3.967-31.738c1.33-21.945,9.918-29.754,13.389-31.738
				c3.856-2.203,2.441,36.192,1.488,42.152C487.751-815.165,483.536-808.099,478.825-806.239"/>
			<path fill="#9BDEAF" d="M484.994-805.968c-0.979,0.226,9.244,0.717,16.258-22.338c4.887-16.064,0.474-23.587-1.625-25.784
				c-2.331-2.441-11.573,25.462-12.451,29.957C485.349-814.784,485.593-808.104,484.994-805.968"/>
			<path fill="none" stroke="#001BAF" stroke-linecap="round" stroke-linejoin="round" stroke-miterlimit="10" d="M488.247-869.715
				c0,0-11.474,47.667-9.422,63.476"/>
			<path fill="none" stroke="#001BAF" stroke-linecap="round" stroke-linejoin="round" stroke-miterlimit="10" d="M499.627-854.09
				c0,0-7.242,37.636-14.633,48.122"/>
			<path fill="none" stroke="#001BAF" stroke-linecap="round" stroke-linejoin="round" stroke-miterlimit="10" d="M459.733-860.541
				c0,0,6.943,39.177,16.365,46.119"/>
			<path fill="#001BAF" d="M613.027-899.633c0,1.851-1.501,3.352-3.352,3.352s-3.352-1.501-3.352-3.352s1.501-3.352,3.352-3.352
				S613.027-901.484,613.027-899.633z"/>
		</g>
		<g>
			<path fill="#FFB54C" d="M229.307-827.108c-0.601,0.601-1.574,0.601-2.175,0l-5.709-5.709c-0.601-0.601-0.601-1.574,0-2.175
				l5.709-5.709c0.601-0.601,1.574-0.601,2.175,0l5.709,5.709c0.601,0.601,0.601,1.574,0,2.175L229.307-827.108z"/>
			<polygon fill="none" stroke="#001BAF" stroke-linecap="round" stroke-linejoin="round" stroke-miterlimit="10" points="
				62.994,-920.825 75.369,-933.2 87.743,-920.825 			"/>
			<path fill="none" stroke="#001BAF" stroke-linecap="round" stroke-linejoin="round" stroke-miterlimit="10" d="M46.675-769.133
				c7,0,11.198-0.516,18,0"/>
			<path fill="#E3A4AF" d="M136.318-923.732c1.725,4.303-1.698,19.157-4.291,22.212c-10.038,11.83-21.796,11.83-22.257,10.564
				c-1.412-3.876,13.819-21.958,16.728-24.977C129.96-919.527,135.222-921.866,136.318-923.732"/>
			<path fill="none" stroke="#FFFFFF" stroke-linecap="round" stroke-linejoin="round" stroke-miterlimit="10" d="M110.231-889.69
				c0,0,24.988-20.416,25.791-32.819"/>
			<path fill="#CEDEDC" d="M149.154-752.133c3.886,0-13.114-32.133-17-32.133s-20.885,32.133-16.028,32.133c0.759,0,1.993,0,3.549,0
				c-3.488,8.883-5.738,16.968-3.549,16.968c4.857,0,29.142,0,33.028,0c1.751,0-0.739-8.085-4.359-16.968
				C146.832-752.133,148.39-752.133,149.154-752.133z"/>
			<line fill="none" stroke="#001BAF" stroke-miterlimit="10" x1="132.154" y1="-735.651" x2="132.154" y2="-717.68"/>
			<line fill="none" stroke="#001BAF" stroke-miterlimit="10" x1="312.676" y1="-883.632" x2="312.676" y2="-863.045"/>
			<path fill="#D9EBCC" d="M332.676-904.632c0,11.046-8.954,20-20,20c-11.046,0-20-8.954-20-20c0-11.046,8.954-20,20-20
				C323.721-924.632,332.676-915.678,332.676-904.632z"/>
		</g>
	</g>
</pattern>
<rect fill="url(#New_Pattern_2)" width="1398.889" height="987.869"/>
<g>
</g>
<g>
</g>
<g>
</g>
<g>
</g>
<g>
</g>
<g>
</g>
</svg>
