<svg xmlns="http://www.w3.org/2000/svg" xmlns:xlink="http://www.w3.org/1999/xlink" version="1.1" x="0px" y="0px" viewBox="0 0 128 160" style="enable-background:new 0 0 128 128;" xml:space="preserve"><path d="M19.6,97.2c0.1,0,0.1,0,0.2,0c0.5,0,0.9-0.3,1-0.8l0.7-3.9c1,0.3,1.9,0.8,2.7,1.3c1.7,1,3.6,2.1,7.2,2.1  c3.6,0,5.5-1.1,7.2-2.1c1.6-1,3.1-1.9,6.2-1.9c3.1,0,4.6,0.9,6.2,1.9c1.7,1,3.6,2.1,7.2,2.1c3.6,0,5.5-1.1,7.2-2.1  c1.6-1,3.1-1.9,6.2-1.9c3.1,0,4.6,0.9,6.2,1.9c1.7,1,3.6,2.1,7.2,2.1c3.6,0,5.5-1.1,7.2-2.1c1.6-1,3.1-1.9,6.2-1.9  c3.1,0,4.6,0.9,6.2,1.9c1.2,0.7,2.5,1.5,4.4,1.9l-0.4-2c0-0.1,0-0.2,0-0.3l-0.7-4c-0.1-0.5-0.6-0.9-1.2-0.8  c-0.5,0.1-0.9,0.6-0.8,1.2l0.5,2.8c-0.3-0.2-0.6-0.3-0.9-0.5c-1.7-1-3.6-2.1-7.2-2.1c-3.6,0-5.5,1.1-7.2,2.1c-1.6,1-3.1,1.9-6.2,1.9  c-3.1,0-4.6-0.9-6.2-1.9c-1.7-1-3.6-2.1-7.2-2.1c-3.6,0-5.5,1.1-7.2,2.1c-1.6,1-3.1,1.9-6.2,1.9c-3.1,0-4.6-0.9-6.2-1.9  c-1.7-1-3.6-2.1-7.2-2.1c-3.6,0-5.5,1.1-7.2,2.1c-1.6,1-3.1,1.9-6.2,1.9c-3.1,0-4.6-0.9-6.2-1.9c-1.4-0.8-2.9-1.7-5.3-2l-0.4,2  c0,0,0,0,0,0c0,0,0,0,0,0.1l-0.7,3.9C18.7,96.6,19.1,97.1,19.6,97.2z"/><path d="M18.2,105.1c0.1,0,0.1,0,0.2,0c0.5,0,0.9-0.3,1-0.8l0.7-3.9c0-0.1,0-0.1,0-0.2c1.8,0.3,2.9,1,4.1,1.7c1.7,1,3.6,2.1,7.2,2.1  c3.6,0,5.5-1.1,7.2-2.1c1.6-1,3.1-1.9,6.2-1.9c3.1,0,4.6,0.9,6.2,1.9c1.7,1,3.6,2.1,7.2,2.1c3.6,0,5.5-1.1,7.2-2.1  c1.6-1,3.1-1.9,6.2-1.9c3.1,0,4.6,0.9,6.2,1.9c1.7,1,3.6,2.1,7.2,2.1c3.6,0,5.5-1.1,7.2-2.1c1.6-1,3.1-1.9,6.2-1.9  c3.1,0,4.6,0.9,6.2,1.9c1.5,0.9,3.1,1.8,5.9,2.1l-0.4-2.1c0,0,0,0-0.1,0c0-0.1,0.1-0.3,0-0.5l-0.7-4c-0.1-0.5-0.6-0.9-1.2-0.8  c-0.5,0.1-0.9,0.6-0.8,1.2l0.6,3.6c-0.9-0.3-1.7-0.8-2.4-1.2c-1.7-1-3.6-2.1-7.2-2.1c-3.6,0-5.5,1.1-7.2,2.1c-1.6,1-3.1,1.9-6.2,1.9  c-3.1,0-4.6-0.9-6.2-1.9c-1.7-1-3.6-2.1-7.2-2.1c-3.6,0-5.5,1.1-7.2,2.1c-1.6,1-3.1,1.9-6.2,1.9c-3.1,0-4.6-0.9-6.2-1.9  c-1.7-1-3.6-2.1-7.2-2.1c-3.6,0-5.5,1.1-7.2,2.1c-1.6,1-3.1,1.9-6.2,1.9c-3.1,0-4.6-0.9-6.2-1.9c-1.6-1-3.4-2-6.8-2.1l-0.4,2  c0,0,0,0,0,0c0,0,0,0,0,0l-0.7,3.9C17.3,104.5,17.6,105,18.2,105.1z"/><path d="M23.2,116c-1.2-0.1-2.2-0.6-3.1-1.3c-0.4-0.4-1-0.3-1.4,0.1c-0.4,0.4-0.3,1,0.1,1.4c1.1,1,2.6,1.6,4.1,1.8c0,0,0.1,0,0.1,0  c0.5,0,0.9-0.4,1-0.9C24.1,116.5,23.7,116,23.2,116z"/><path d="M31.1,116h-4c-0.6,0-1,0.4-1,1s0.4,1,1,1h4c0.6,0,1-0.4,1-1S31.6,116,31.1,116z"/><path d="M24,73.7c0.1,0,0.1,0,0.2,0c0.5,0,0.9-0.3,1-0.8l0.4-2.2c1.4,0.7,3.2,1.4,5.9,1.4c3.6,0,5.5-1.1,7.2-2.1  c1.6-1,3.1-1.9,6.2-1.9c3.1,0,4.6,0.9,6.2,1.9c1.7,1,3.6,2.1,7.2,2.1c3.6,0,5.5-1.1,7.2-2.1c1.6-1,3.1-1.9,6.2-1.9  c3.1,0,4.6,0.9,6.2,1.9c1.7,1,3.6,2.1,7.2,2.1c3.6,0,5.5-1.1,7.2-2.1c1.6-1,3.1-1.9,6.2-1.9c1.6,0,2.8,0.3,3.8,0.6l0.2,1.4  c0.1,0.5,0.5,0.8,1,0.8c0.1,0,0.1,0,0.2,0c0.5-0.1,0.9-0.6,0.8-1.2l-0.7-4c-0.1-0.5-0.6-0.9-1.2-0.8c-0.5,0.1-0.9,0.6-0.8,1.2  l0.1,0.4c-1-0.3-2.1-0.4-3.4-0.4c-3.6,0-5.5,1.1-7.2,2.1c-1.6,1-3.1,1.9-6.2,1.9c-3.1,0-4.6-0.9-6.2-1.9c-1.7-1-3.6-2.1-7.2-2.1  c-3.6,0-5.5,1.1-7.2,2.1c-1.6,1-3.1,1.9-6.2,1.9c-3.1,0-4.6-0.9-6.2-1.9c-1.7-1-3.6-2.1-7.2-2.1c-3.6,0-5.5,1.1-7.2,2.1  c-1.6,1-3.1,1.9-6.2,1.9c-2.7,0-4.2-0.7-5.6-1.5c-0.1-0.4-0.4-0.6-0.8-0.7c-0.1,0-0.3,0-0.4,0c-0.2-0.1-0.3-0.2-0.5-0.3l-0.2,1  c0,0,0,0.1,0,0.1l-0.7,3.9C23.1,73.1,23.4,73.6,24,73.7z"/><path d="M25.4,65.8c0.1,0,0.1,0,0.2,0c0.5,0,0.9-0.3,1-0.8l0.3-1.8c1.2,0.4,2.6,0.8,4.5,0.8c3.6,0,5.5-1.1,7.2-2.1  c1.6-1,3.1-1.9,6.2-1.9c3.1,0,4.6,0.9,6.2,1.9c1.7,1,3.6,2.1,7.2,2.1c3.6,0,5.5-1.1,7.2-2.1c1.6-1,3.1-1.9,6.2-1.9  c3.1,0,4.6,0.9,6.2,1.9c1.7,1,3.6,2.1,7.2,2.1c3.6,0,5.5-1.1,7.2-2.1c1.6-1,3.1-1.9,6.2-1.9c0.9,0,1.7,0.1,2.3,0.2l0.3,1.9  c0.1,0.5,0.5,0.8,1,0.8c0.1,0,0.1,0,0.2,0c0.5-0.1,0.9-0.6,0.8-1.2l-0.7-4c-0.1-0.5-0.6-0.9-1.2-0.8c-0.5,0.1-0.9,0.6-0.8,1.2l0,0  c-0.6-0.1-1.2-0.1-2-0.1c-3.6,0-5.5,1.1-7.2,2.1c-1.6,1-3.1,1.9-6.2,1.9c-3.1,0-4.6-0.9-6.2-1.9c-1.7-1-3.6-2.1-7.2-2.1  c-3.6,0-5.5,1.1-7.2,2.1c-1.6,1-3.1,1.9-6.2,1.9c-3.1,0-4.6-0.9-6.2-1.9c-1.7-1-3.6-2.1-7.2-2.1c-3.6,0-5.5,1.1-7.2,2.1  c-1.6,1-3.1,1.9-6.2,1.9c-1.8,0-3.1-0.3-4.2-0.8l0-0.1c0.1-0.5-0.3-1.1-0.8-1.2c-0.4-0.1-0.8,0.1-1,0.4c0,0,0,0-0.1,0l-0.1,0.3  c0,0.1-0.1,0.1-0.1,0.2l-0.7,3.9C24.5,65.2,24.9,65.7,25.4,65.8z"/><path d="M22.5,81.5c0.1,0,0.1,0,0.2,0c0.5,0,0.9-0.3,1-0.8l0.5-2.9c1.7,1,3.6,2.1,7.2,2.1c3.6,0,5.5-1.1,7.2-2.1  c1.6-1,3.1-1.9,6.2-1.9c3.1,0,4.6,0.9,6.2,1.9c1.7,1,3.6,2.1,7.2,2.1c3.6,0,5.5-1.1,7.2-2.1c1.6-1,3.1-1.9,6.2-1.9  c3.1,0,4.6,0.9,6.2,1.9c1.7,1,3.6,2.1,7.2,2.1c3.6,0,5.5-1.1,7.2-2.1c1.6-1,3.1-1.9,6.2-1.9c2.6,0,4,0.6,5.4,1.4L104,78  c0.1,0.5,0.5,0.8,1,0.8c0.1,0,0.1,0,0.2,0c0.2,0,0.4-0.2,0.6-0.3c0.1,0.1,0.2,0.1,0.4,0.2l-0.1-0.8c0-0.1,0-0.2,0-0.3l-0.7-4  c-0.1-0.5-0.6-0.9-1.2-0.8c-0.5,0.1-0.9,0.6-0.8,1.2l0.2,0.9c-1.3-0.5-2.8-0.9-4.9-0.9c-3.6,0-5.5,1.1-7.2,2.1  c-1.6,1-3.1,1.9-6.2,1.9c-3.1,0-4.6-0.9-6.2-1.9c-1.7-1-3.6-2.1-7.2-2.1c-3.6,0-5.5,1.1-7.2,2.1c-1.6,1-3.1,1.9-6.2,1.9  c-3.1,0-4.6-0.9-6.2-1.9c-1.7-1-3.6-2.1-7.2-2.1c-3.6,0-5.5,1.1-7.2,2.1c-1.6,1-3.1,1.9-6.2,1.9c-3.1,0-4.6-0.9-6.2-1.9  c-0.7-0.4-1.5-0.9-2.5-1.3l-0.3,1.5c0,0,0,0.1,0,0.1l-0.7,3.9C21.6,80.9,22,81.4,22.5,81.5z"/><path d="M21.1,89.4c0.1,0,0.1,0,0.2,0c0.5,0,0.9-0.3,1-0.8l0.6-3.5c0.5,0.2,0.9,0.5,1.3,0.7c1.7,1,3.6,2.1,7.2,2.1  c3.6,0,5.5-1.1,7.2-2.1c1.6-1,3.1-1.9,6.2-1.9c3.1,0,4.6,0.9,6.2,1.9c1.7,1,3.6,2.1,7.2,2.1c3.6,0,5.5-1.1,7.2-2.1  c1.6-1,3.1-1.9,6.2-1.9c3.1,0,4.6,0.9,6.2,1.9c1.7,1,3.6,2.1,7.2,2.1c3.6,0,5.5-1.1,7.2-2.1c1.6-1,3.1-1.9,6.2-1.9  c3.1,0,4.6,0.9,6.2,1.9c0.3,0.2,0.6,0.4,1,0.6c0.1,0.1,0.3,0.2,0.5,0.3c0.4,0.2,0.9,0.4,1.5,0.6l-0.3-1.5c0-0.1,0-0.2,0-0.3l-0.7-4  c-0.1-0.5-0.6-0.9-1.2-0.8c-0.5,0.1-0.9,0.6-0.8,1.2l0.3,1.8c-1.5-0.9-3.4-1.7-6.5-1.7c-3.6,0-5.5,1.1-7.2,2.1  c-1.6,1-3.1,1.9-6.2,1.9c-3.1,0-4.6-0.9-6.2-1.9c-1.7-1-3.6-2.1-7.2-2.1c-3.6,0-5.5,1.1-7.2,2.1c-1.6,1-3.1,1.9-6.2,1.9  c-3.1,0-4.6-0.9-6.2-1.9c-1.7-1-3.6-2.1-7.2-2.1c-3.6,0-5.5,1.1-7.2,2.1c-1.6,1-3.1,1.9-6.2,1.9c-3.1,0-4.6-0.9-6.2-1.9  c-1.1-0.6-2.2-1.3-3.9-1.7L21,84.3c0,0,0,0,0,0l-0.7,3.9C20.2,88.8,20.5,89.3,21.1,89.4z"/><path d="M39,116h-4c-0.6,0-1,0.4-1,1s0.4,1,1,1h4c0.6,0,1-0.4,1-1S39.6,116,39,116z"/><path d="M47,116h-4c-0.6,0-1,0.4-1,1s0.4,1,1,1h4c0.6,0,1-0.4,1-1S47.6,116,47,116z"/><path d="M55,116L55,116h-2h-2c-0.6,0-1,0.4-1,1s0.4,1,1,1h2h2h0c0.6,0,1-0.4,1-1S55.6,116,55,116z"/><path d="M103.4,116h-4c-0.6,0-1,0.4-1,1s0.4,1,1,1h4c0.6,0,1-0.4,1-1S103.9,116,103.4,116z"/><path d="M110.5,112.5c-0.5-0.2-1.1,0-1.3,0.5c-0.5,1-1.3,1.8-2.3,2.4c-0.5,0.3-0.7,0.9-0.4,1.3c0.2,0.3,0.5,0.5,0.9,0.5  c0.2,0,0.3,0,0.5-0.1c1.4-0.7,2.5-1.8,3.2-3.3C111.2,113.4,111,112.8,110.5,112.5z"/><path d="M95.3,116h-4c-0.6,0-1,0.4-1,1s0.4,1,1,1h4c0.6,0,1-0.4,1-1S95.8,116,95.3,116z"/><path d="M79.2,116h-4c-0.6,0-1,0.4-1,1s0.4,1,1,1h4c0.6,0,1-0.4,1-1S79.7,116,79.2,116z"/><path d="M63.1,116L63.1,116h-4h0c-0.6,0-1,0.4-1,1s0.4,1,1,1h0h4h0.1c0.6,0,1-0.4,1-1S63.6,116,63.1,116z"/><path d="M71.1,116H69h-1.9H67c-0.6,0-1,0.4-1,1s0.4,1,1,1h0.1H69h2.1c0.6,0,1-0.4,1-1S71.7,116,71.1,116z"/><path d="M87.2,116h-4c-0.6,0-1,0.4-1,1s0.4,1,1,1h4c0.6,0,1-0.4,1-1S87.8,116,87.2,116z"/><path d="M111.4,110.2c0.2-0.2,0.3-0.5,0.2-0.8c0-0.1,0-0.3-0.1-0.4l-0.6-3.6c-0.1-0.5-0.6-0.9-1.2-0.8c-0.5,0.1-0.9,0.6-0.8,1.2  l0.6,3.6c0,0.1,0,0.2,0.1,0.3c0,0.1,0.1,0.2,0.1,0.3c-2.3-0.2-3.6-1-5-1.8c-1.7-1-3.6-2.1-7.2-2.1c-3.6,0-5.5,1.1-7.2,2.1  c-1.6,1-3.1,1.9-6.1,1.9c-3,0-4.5-0.9-6.1-1.9c-1.7-1-3.6-2.1-7.2-2.1c-3.6,0-5.5,1.1-7.2,2.1c-1.6,1-3.1,1.9-6.1,1.9  c-3,0-4.5-0.9-6.1-1.9c-1.7-1-3.6-2.1-7.2-2.1c-3.6,0-5.5,1.1-7.2,2.1c-1.6,1-3.1,1.9-6.1,1.9c-3,0-4.5-0.9-6.1-1.9  c-1.7-1-3.6-2.1-7.2-2.1c-0.6,0-1,0.4-1,1c0,0.1,0,0.2,0,0.2c-0.2,0.1-0.3,0.4-0.4,0.6l-0.2,1.1c-0.1,0.5-0.1,1.1-0.1,1.6  c0,0.6,0.1,1.1,0.2,1.7c0.1,0.5,0.5,0.8,1,0.8c0.1,0,0.1,0,0.2,0c0.5-0.1,0.9-0.7,0.8-1.2c-0.1-0.4-0.1-0.8-0.1-1.3  c0-0.4,0-0.8,0.1-1.2l0.2-1.1c0-0.1,0-0.1,0-0.2c2.6,0.1,4,0.9,5.5,1.8c1.7,1,3.6,2.1,7.2,2.1c3.6,0,5.5-1.1,7.2-2.1  c1.6-1,3.1-1.9,6.1-1.9c3,0,4.5,0.9,6.1,1.9c1.7,1,3.6,2.1,7.2,2.1c3.6,0,5.5-1.1,7.2-2.1c1.6-1,3.1-1.9,6.1-1.9  c3,0,4.5,0.9,6.1,1.9c1.7,1,3.6,2.1,7.2,2.1c3.6,0,5.5-1.1,7.2-2.1c1.6-1,3.1-1.9,6.1-1.9s4.5,0.9,6.1,1.9c1.7,1,3.6,2.1,7.2,2.1  c0.3,0,0.5-0.1,0.7-0.3l0.1-1.2C111.7,110.3,111.5,110.2,111.4,110.2z"/><path d="M126.6,120.1l-13.1-72.3c-0.8-4.3-5-7.9-9.4-7.9H81V10c0-5.5-4.4-10-9.7-10h-4.5C61.4,0,57,4.5,57,10c0,1.1,0.9,2,2,2  s2-0.9,2-2c0-3.3,2.6-6,5.7-6h4.5c3.2,0,5.7,2.7,5.7,6v14H51V10.1C51,4.5,46.6,0,41.3,0h-4.5C31.4,0,27,4.5,27,10.1c0,1.1,0.9,2,2,2  s2-0.9,2-2C31,6.7,33.6,4,36.7,4h4.5c3.2,0,5.7,2.7,5.7,6.1V40H24c-4.4,0-8.6,3.5-9.4,7.9L1.4,120.1C0.6,124.5,3.6,128,8,128h112  C124.4,128,127.4,124.5,126.6,120.1z M77,51.1c-1.3-0.6-2.9-1.1-5.3-1.1c-3.6,0-5.5,1.1-7.2,2.1c-1.6,1-3.1,1.9-6.2,1.9  c-3.1,0-4.6-0.9-6.2-1.9c-0.4-0.2-0.7-0.4-1.1-0.7c0-0.2,0.1-0.3,0.1-0.5v-7v-2h26v2V51.1z M51,34h26v6H51V34z M77,26v6H51v-6H77z   M122.2,123.1c-0.5,0.6-1.2,0.9-2.2,0.9H8c-0.9,0-1.7-0.3-2.2-0.9c-0.5-0.6-0.6-1.4-0.5-2.3L17.9,52c0,0,0,0,0,0l0.4-2c0,0,0,0,0,0  l0.3-1.4c0.4-2.4,3-4.6,5.5-4.6h23v6.2c-0.6-0.1-1.4-0.2-2.2-0.2c-3.6,0-5.5,1.1-7.2,2.1c-1.6,1-3.1,1.9-6.2,1.9  c-2.1,0-3.5-0.4-4.6-1l-0.3,1.6c0,0.1-0.1,0.1-0.1,0.2l-0.4,2c-0.1,0.5,0.3,1.1,0.8,1.2c0.1,0,0.1,0,0.2,0c0.5,0,0.9-0.3,1-0.8  l0.3-1.5c0.9,0.2,1.9,0.3,3.1,0.3c3.6,0,5.5-1.1,7.2-2.1c1.6-1,3.1-1.9,6.2-1.9c1,0,1.9,0.1,2.6,0.3c0,0,0,0,0,0  c0.3,0.1,0.6,0.1,0.9,0.2c1,0.3,1.8,0.8,2.7,1.3c1.7,1,3.6,2.1,7.2,2.1c3.6,0,5.5-1.1,7.2-2.1c1.6-1,3.1-1.9,6.2-1.9  c2.7,0,4.2,0.7,5.6,1.5c0,0,0.1,0.1,0.1,0.1s0.2,0.1,0.5,0.3c0,0,0,0,0.1,0c1.7,1,3.6,2.1,7.2,2.1c3.6,0,5.5-1.1,7.2-2.1  c1.6-1,3.1-1.9,6.2-1.9c0.3,0,0.6,0,0.9,0c0,0,0,0.1,0,0.1l0.4,2c0.1,0.5,0.5,0.8,1,0.8c0.1,0,0.1,0,0.2,0c0.5-0.1,0.9-0.6,0.8-1.2  l-0.4-2c0-0.1-0.1-0.2-0.1-0.3l-0.2-1.3c-0.7-0.1-1.6-0.2-2.5-0.2c-3.6,0-5.5,1.1-7.2,2.1c-1.6,1-3.1,1.9-6.2,1.9  c-1.8,0-3.1-0.3-4.2-0.8c0-0.1,0-0.1,0-0.2v-9h23c2.5,0,5.1,2.1,5.5,4.6l13.1,72.3C122.8,121.8,122.6,122.6,122.2,123.1z"/><text x="0" y="143" fill="#000000" font-size="5px" font-weight="bold" font-family="'Helvetica Neue', Helvetica, Arial-Unicode, Arial, Sans-serif">Created by priyanka</text><text x="0" y="148" fill="#000000" font-size="5px" font-weight="bold" font-family="'Helvetica Neue', Helvetica, Arial-Unicode, Arial, Sans-serif">from the Noun Project</text></svg>