<svg xmlns="http://www.w3.org/2000/svg" xmlns:xlink="http://www.w3.org/1999/xlink" version="1.1" x="0px" y="0px" viewBox="0 0 100 125" enable-background="new 0 0 100 100" xml:space="preserve"><path d="M40.2,18.4c-4,0-7.2,3.2-7.2,7.2c0,4,3.2,7.2,7.2,7.2s7.2-3.2,7.2-7.2C47.4,21.6,44.2,18.4,40.2,18.4z M40.2,31.4  c-3.2,0-5.8-2.6-5.8-5.8c0-3.2,2.6-5.8,5.8-5.8c3.2,0,5.8,2.6,5.8,5.8C46,28.8,43.4,31.4,40.2,31.4z M40.2,34c0.4,0,0.7,0.3,0.7,0.7  v1.9c0,0.4-0.3,0.7-0.7,0.7s-0.7-0.3-0.7-0.7v-1.9C39.5,34.3,39.8,34,40.2,34z M39.5,16.5v-1.9c0-0.4,0.3-0.7,0.7-0.7  s0.7,0.3,0.7,0.7v1.9c0,0.4-0.3,0.7-0.7,0.7S39.5,16.9,39.5,16.5z M49.3,24.9h1.9c0.4,0,0.7,0.3,0.7,0.7c0,0.4-0.3,0.7-0.7,0.7h-1.9  c-0.4,0-0.7-0.3-0.7-0.7C48.6,25.2,48.9,24.9,49.3,24.9z M28.5,25.6c0-0.4,0.3-0.7,0.7-0.7h1.9c0.4,0,0.7,0.3,0.7,0.7  c0,0.4-0.3,0.7-0.7,0.7h-1.9C28.8,26.3,28.5,26,28.5,25.6z M47.5,21.4c-0.2-0.3-0.1-0.8,0.3-1l1.6-0.9c0.3-0.2,0.8-0.1,1,0.3  c0.2,0.3,0.1,0.8-0.3,1l-1.6,0.9c-0.1,0.1-0.2,0.1-0.4,0.1C47.8,21.7,47.6,21.6,47.5,21.4z M32.9,29.8c0.2,0.3,0.1,0.8-0.3,1  L31,31.7c-0.1,0.1-0.2,0.1-0.4,0.1c-0.2,0-0.5-0.1-0.6-0.4c-0.2-0.3-0.1-0.8,0.3-1l1.6-0.9C32.3,29.3,32.7,29.4,32.9,29.8z M44,17.3  l0.9-1.7c0.2-0.3,0.6-0.5,1-0.3c0.3,0.2,0.5,0.6,0.3,1L45.3,18c-0.1,0.2-0.4,0.4-0.6,0.4c-0.1,0-0.2,0-0.4-0.1  C43.9,18.1,43.8,17.6,44,17.3z M36.1,32.9c0.3,0.2,0.5,0.6,0.3,1l-0.9,1.7c-0.1,0.2-0.4,0.4-0.6,0.4c-0.1,0-0.2,0-0.4-0.1  c-0.3-0.2-0.5-0.6-0.3-1l0.9-1.7C35.3,32.8,35.8,32.7,36.1,32.9z M34.3,16.3c-0.2-0.3-0.1-0.8,0.3-1c0.3-0.2,0.8-0.1,1,0.3l0.9,1.7  c0.2,0.3,0.1,0.8-0.3,1c-0.1,0.1-0.2,0.1-0.3,0.1c-0.3,0-0.5-0.1-0.6-0.4L34.3,16.3z M45.2,33.2l0.9,1.7c0.2,0.3,0.1,0.8-0.3,1  c-0.1,0.1-0.2,0.1-0.3,0.1c-0.3,0-0.5-0.1-0.6-0.4l-0.9-1.7c-0.2-0.4-0.1-0.8,0.3-1C44.5,32.7,45,32.9,45.2,33.2z M30,19.7  c0.2-0.3,0.6-0.5,1-0.3l1.6,0.9c0.3,0.2,0.5,0.6,0.3,1c-0.1,0.2-0.4,0.4-0.6,0.4c-0.1,0-0.2,0-0.4-0.1l-1.6-0.9  C30,20.5,29.8,20.1,30,19.7z M47.5,29.7c0.2-0.3,0.6-0.5,1-0.3l1.6,0.9c0.3,0.2,0.5,0.6,0.3,1c-0.1,0.2-0.4,0.4-0.6,0.4  c-0.1,0-0.2,0-0.4-0.1l-1.6-0.9C47.4,30.5,47.3,30.1,47.5,29.7z M38.9,65.5h-21c-0.4,0-0.7-0.3-0.7-0.7c0-0.4,0.3-0.7,0.7-0.7h21  c0.4,0,0.7,0.3,0.7,0.7C39.6,65.2,39.3,65.5,38.9,65.5z M34.1,69.1h-8.3c-0.4,0-0.7-0.3-0.7-0.7c0-0.4,0.3-0.7,0.7-0.7h8.3  c0.4,0,0.7,0.3,0.7,0.7C34.8,68.8,34.5,69.1,34.1,69.1z M32.1,78.2c0,0.4-0.3,0.7-0.7,0.7h-6.9c-0.4,0-0.7-0.3-0.7-0.7  c0-0.4,0.3-0.7,0.7-0.7h6.9C31.8,77.5,32.1,77.8,32.1,78.2z M25.8,81.2c0,0.4-0.3,0.7-0.7,0.7h-7.4c-0.4,0-0.7-0.3-0.7-0.7  c0-0.4,0.3-0.7,0.7-0.7h7.4C25.5,80.5,25.8,80.8,25.8,81.2z M11,46.7c0-0.3,0.4-0.6,0.7-0.6c0.7,0.1,1.3,0.3,1.9,0.5  c0.4,0.1,0.8,0.2,1.1,0.3c0.8,0.2,1.5,0.1,2.5-0.1c0.2-0.1,0.4-0.1,0.6-0.2l0.1,0c0.7-0.2,1.4-0.4,2.1-0.5c0.3,0,0.6,0,1,0  c0.1,0,0.2,0,0.2,0c0.7,0.1,1.3,0.3,1.9,0.5c0.4,0.1,0.7,0.2,1.1,0.3c0.3,0.1,0.7,0.1,1.1,0.1c0.5-0.1,1.1-0.2,1.7-0.4  c0.8-0.3,1.7-0.5,2.5-0.5c0,0,0.1,0,0.1,0c0,0,0.1,0,0.1,0h0c0.8,0,1.5,0.2,2.4,0.5l0.1,0c0.7,0.2,1.4,0.4,2,0.5  c0.6,0,1.3-0.2,2-0.5l0.1,0c0.9-0.3,1.6-0.5,2.4-0.5l0.1,0c0,0,0,0,0.1,0c0,0,0.1,0,0.1,0c0.9,0,1.7,0.3,2.5,0.5  c0.5,0.2,1.1,0.4,1.7,0.4c0.1,0,0.1,0,0.2,0c0.3,0,0.6,0,0.9-0.1c0.3-0.1,0.7-0.2,1.1-0.3c0.6-0.2,1.3-0.4,2-0.5c0.1,0,0.2,0,0.2,0  c0.4-0.1,0.7-0.1,1,0c0.7,0.1,1.4,0.3,2.1,0.5l0.1,0c0.2,0.1,0.3,0.1,0.5,0.2c0.9,0.3,1.7,0.3,2.5,0.1c0.3-0.1,0.7-0.2,1.1-0.3  c0.6-0.2,1.3-0.4,2-0.5c0.4,0,0.7,0.2,0.7,0.6c0,0.2,0,0.3-0.1,0.5c-0.1,0.1-0.3,0.2-0.4,0.2c-0.6,0.1-1.2,0.3-1.7,0.4  c-0.4,0.1-0.8,0.3-1.2,0.3c-1,0.2-2,0.2-3.1-0.2c-0.2-0.1-0.4-0.1-0.6-0.2l-0.1,0c-0.7-0.2-1.3-0.4-1.8-0.4  c-0.7-0.1-1.5,0.2-2.3,0.4l-0.1,0c-0.8,0.3-1.6,0.5-2.5,0.5c0,0,0,0,0,0c-0.2,0-0.4,0-0.5,0c0,0-0.1,0-0.1,0l0-0.1l0,0.1  c-0.5,0-1-0.1-1.5-0.3c-0.2-0.1-0.4-0.1-0.5-0.2l-0.1,0c-0.7-0.2-1.3-0.4-1.8-0.4c0,0,0,0,0,0l-0.1,0c-0.6,0-1.2,0.2-2,0.4  c-0.8,0.3-1.6,0.5-2.5,0.5l0,0c0,0,0,0-0.1,0l0,0l0,0c0,0,0,0-0.1,0l0,0c-0.9,0-1.7-0.3-2.5-0.5c-0.8-0.2-1.4-0.4-2-0.5l-0.1,0  c0,0,0,0,0,0c-0.6,0-1.2,0.2-1.8,0.4c-0.2,0.1-0.5,0.1-0.7,0.2c-0.6,0.2-1.1,0.3-1.7,0.3l0,0c-0.1,0-0.3,0-0.4,0l0,0  c-0.8,0-1.7-0.3-2.5-0.5l-0.1,0c-0.8-0.3-1.6-0.5-2.3-0.4c-0.6,0-1.2,0.2-1.8,0.4c-0.2,0.1-0.4,0.1-0.7,0.2  c-0.7,0.2-1.3,0.3-1.9,0.3c-0.4,0-0.8,0-1.2-0.1c-0.4-0.1-0.8-0.2-1.2-0.3l0,0c-0.6-0.2-1.2-0.4-1.7-0.4  C11.2,47.4,10.9,47.1,11,46.7z M57.9,53.6c0,0.2,0,0.3-0.1,0.5c-0.1,0.1-0.3,0.2-0.4,0.2c-0.6,0.1-1.2,0.3-1.7,0.4  c-0.4,0.1-0.8,0.3-1.2,0.3c-1,0.2-2,0.2-3.1-0.2c-0.2-0.1-0.4-0.1-0.7-0.2c-0.7-0.2-1.3-0.4-1.8-0.4c-0.7-0.1-1.5,0.2-2.3,0.4  l-0.1,0c-0.8,0.3-1.6,0.5-2.5,0.5c0,0,0,0,0,0c-0.2,0-0.3,0-0.5,0c0,0-0.1,0-0.1,0c-0.5,0-1-0.1-1.5-0.3c-0.2-0.1-0.4-0.1-0.7-0.2  c-0.6-0.2-1.3-0.4-1.8-0.4c0,0,0,0,0,0l-0.1,0c-0.6,0-1.2,0.2-2,0.4c-0.8,0.3-1.6,0.5-2.5,0.5c0,0,0,0-0.1,0c0,0,0,0-0.1,0  c0,0,0,0-0.1,0c0,0,0,0-0.1,0h0c-0.9,0-1.7-0.3-2.5-0.5c-0.7-0.2-1.4-0.4-2-0.5l-0.1,0c0,0,0,0,0,0c-0.6,0-1.2,0.2-1.8,0.4  c-0.2,0.1-0.4,0.1-0.7,0.2c-0.5,0.1-1,0.2-1.5,0.3l-0.1,0c0,0-0.1,0-0.1,0c-0.2,0-0.3,0-0.5,0c0,0,0,0-0.1,0c-0.9,0-1.7-0.3-2.5-0.5  l-0.1,0c-0.8-0.3-1.6-0.5-2.3-0.4c-0.6,0-1.2,0.2-1.8,0.4c-0.2,0.1-0.4,0.1-0.7,0.2c-1.1,0.3-2.1,0.4-3.1,0.2  c-0.4-0.1-0.8-0.2-1.1-0.3l-0.1,0c-0.5-0.2-1.1-0.4-1.7-0.4c-0.3,0-0.6-0.4-0.6-0.7c0-0.3,0.4-0.6,0.7-0.6c0.7,0.1,1.3,0.3,1.9,0.5  c0.4,0.1,0.8,0.2,1.1,0.3c0.8,0.2,1.5,0.1,2.5-0.1c0.2-0.1,0.4-0.1,0.5-0.2l0.1,0c0.7-0.2,1.4-0.4,2.1-0.5c0.3,0,0.6,0,1,0  c0.1,0,0.2,0,0.2,0c0.7,0.1,1.3,0.3,1.9,0.5c0.4,0.1,0.8,0.2,1.1,0.3C24.6,54,25,54,25.4,54c0.5-0.1,1.1-0.2,1.7-0.4  c0.8-0.3,1.7-0.5,2.5-0.5c0.1,0,0.1,0,0.2,0c0,0,0.1,0,0.1,0c0,0,0,0,0,0c0.8,0,1.5,0.2,2.4,0.5l0.1,0c0.6,0.2,1.4,0.4,2,0.5  c0.6,0,1.4-0.3,2-0.5l0.1,0c0.9-0.3,1.6-0.5,2.4-0.5h0c0,0,0,0,0.1,0c0.1,0,0.1,0,0.2,0c0.9,0,1.7,0.3,2.5,0.5  c0.7,0.2,1.2,0.4,1.7,0.4c0.1,0,0.1,0,0.2,0c0.3,0,0.6,0,0.9-0.1c0.4-0.1,0.7-0.2,1.1-0.3c0.6-0.2,1.3-0.4,1.9-0.5  c0.1,0,0.2,0,0.2,0c0.4-0.1,0.7-0.1,1,0c0.7,0.1,1.4,0.3,2.1,0.5l0.1,0c0.2,0.1,0.3,0.1,0.5,0.2c0.9,0.3,1.7,0.3,2.5,0.1  c0.4-0.1,0.7-0.2,1.1-0.3c0.6-0.2,1.3-0.4,1.9-0.5C57.5,53,57.8,53.3,57.9,53.6z M36.3,82c-2.2,0-3.7,0.9-3.7,2.1s1.6,2.1,3.7,2.1  c2.1,0,3.7-0.9,3.7-2.1S38.5,82,36.3,82z M36.3,84.7c-1.4,0-2.2-0.5-2.3-0.6c0.1-0.2,0.9-0.7,2.3-0.7c1.4,0,2.2,0.5,2.3,0.6  C38.5,84.2,37.7,84.7,36.3,84.7z M88.8,47.2c0.5-0.9,0.2-2-0.6-2.5c-0.6-0.4-1.4-0.3-2,0.1c-6.6-0.6-12.2-1.2-14.8-1.4  c-0.1-0.2-0.2-0.3-0.4-0.5c-0.8-0.6-1.9-0.3-2.5,0.5L51.4,69.3c-0.9,0.2-1.9,0.3-2.8,0.3l-0.3,0c0,0,0,0,0,0c-0.4,0-0.7,0.3-0.7,0.6  c0,0.4,0.2,0.7,0.6,0.8l1.9,0.4l-3.7,5.6c-0.3,0.4-0.4,0.9-0.2,1.4c0.2,0.4,0.6,0.7,1.1,0.8l0.5,0.1c0.1,0,0.2,0,0.3,0  c0.8,0,1.7-0.4,2.1-1.1l3.9-6l12.9,2.4c0.1,0.2,0.2,0.5,0.4,0.6c0.3,0.3,0.7,0.5,1.2,0.5c0.1,0,0.1,0,0.2,0l0.5-0.1l-2.8,5.1  c-0.3,0.5-0.3,1,0,1.4c0.2,0.4,0.7,0.6,1.2,0.6l0.8,0c0,0,0,0,0,0c0.9,0,1.8-0.6,2.2-1.3L74,75l10.2-1.3l0.5,1.8  c0.3,0.8,1.1,1.4,2,1.4c0.1,0,0.1,0,0.2,0l0.2,0c0.5-0.1,0.9-0.3,1.2-0.7c0.3-0.4,0.3-0.9,0.2-1.4l-4.1-13.5  c1.3-3.1,2.5-7.1,3.5-12.2L88.8,47.2z M68.9,45.5c-0.1,0.5-0.1,1-0.2,1.5l-5,7.7l0,0L62,57.2c0,0,0,0,0,0l-7.2,11  c-0.5,0.2-0.9,0.4-1.4,0.6L68.9,45.5z M67.9,50.8c-0.6,2.3-1.4,4.4-2.3,6.3l-0.6-1.9L67.9,50.8z M64.7,58.9c-0.2,0.3-0.4,0.7-0.6,1  l-0.6-2.2l0.6-0.9L64.7,58.9z M63,61.5c-1.6,2.2-3.5,3.9-5.5,5.2l4.8-7.4L63,61.5z M48.9,77.3c-0.2,0.3-0.6,0.5-1,0.4l-0.4-0.1l4-6  l1,0.2L48.9,77.3z M66.9,73.1l-14.1-2.7c8.3-2.2,16.2-10.9,17.6-25.6c2,0.2,7.8,0.8,14.9,1.4l-9.1,16.5L75,61.3  c-0.3-0.3-0.7-0.3-1-0.1c-0.3,0.3-0.3,0.7-0.1,1l1.6,1.8l-0.8,1.4l-2.4-2.7c-0.3-0.3-0.7-0.3-1-0.1c-0.3,0.3-0.3,0.7-0.1,1l2.7,3.1  L73.3,68l-1.8-2c-0.3-0.3-0.7-0.3-1,0c-0.3,0.3-0.3,0.7,0,1l2,2.2c0,0,0.1,0.1,0.1,0.1l-1.2,2.2l-2.8,0.3  C67.8,71.9,67.2,72.4,66.9,73.1z M68.5,74.3L68.5,74.3c-0.1,0-0.1,0-0.2,0c0,0-0.1-0.1-0.1-0.2l0-0.3c0-0.2,0.2-0.5,0.5-0.5l1.8-0.2  l-0.6,1L68.5,74.3z M69.3,80.7c-0.2,0.3-0.6,0.6-1,0.6V82l0-0.7l-0.7,0l19.4-35.2c0.1-0.2,0.3-0.2,0.4-0.1c0.2,0.1,0.2,0.4,0.1,0.6  L69.3,80.7z M81.3,64.4c-1.5,2.5-3,4.2-4.5,5.4l4-7.4L81.3,64.4z M81.8,66.2l1.2,4l-5.2,0.6C79.2,69.7,80.5,68.2,81.8,66.2z   M74.8,73.5l0.5-1l8.2-0.9l0.2,0.8L74.8,73.5z M86,71.9l1.1,3.4c0,0.1,0,0.1,0,0.2c0,0-0.1,0.1-0.2,0.1l-0.3,0  c-0.2,0-0.5-0.2-0.6-0.4l-0.6-2.1C85.7,72.8,85.9,72.4,86,71.9L86,71.9z M85.6,70.4c-0.3-0.3-0.7-0.4-1.1-0.4l-2.8-9.4l0.6-1.1  L85.6,70.4z M83.7,59.2l-0.5-1.5l2.1-3.9C84.8,55.9,84.2,57.7,83.7,59.2z"/><text x="0" y="115" fill="#000000" font-size="5px" font-weight="bold" font-family="'Helvetica Neue', Helvetica, Arial-Unicode, Arial, Sans-serif">Created by DANT</text><text x="0" y="120" fill="#000000" font-size="5px" font-weight="bold" font-family="'Helvetica Neue', Helvetica, Arial-Unicode, Arial, Sans-serif">from the Noun Project</text></svg>